<svg xmlns="http://www.w3.org/2000/svg" viewBox="0 0 62.4 67.7" class="Header_logo__s3lE_"><path fill-rule="evenodd" fill="currentColor" d="M19.5,3.9h.8a2.6,2.6,0,0,1-1,1.9,1.9,1.9,0,0,1,.8.7,3.9,3.9,0,0,0,1.2-2.6h2.5V5.4H23a9.4,9.4,0,0,0,.3.9h1.1c.3-.2.4-.4.4-.9V3.9h.8V3h-.8V.9h-2a2.5,2.5,0,0,0,.4-.7H22a3.1,3.1,0,0,1-.2.8H20.4v2h-.9Zm4.3-2.2V3h-1l.5-.5-.9-.8ZM21.4,2.9V1.7h.9l-.6.5.9.8H21.4ZM62.4,15V10.4H49.7V7.6H44v2.8H20.9l2-2.6H17.3l-5.3,7V13.5H9.9L1.2,24.9v3.7H13.1L22,22.4l10.1,6.9V23.9l-6.3-4.2,5.5-3.8V15H44v2.9H34.2v4.6H44v.9l-15.9,11-10.3-7-3.3,2.4H12v7.8h4.5V32l7.9,5.6h7.4L44,29v8.6H32V63H17.7V51.9l1.2-.5V61.9l5.2-2.2V49.4l1.4-.5V59.2l5.2-2.1V41.3l-6.6,2.5V37.7H18.9v8.1l-1.2.5V41H12.4v7.3l-1.2.5V45H8.3V39.2H3.1V45H.7v4.6H3.1V58L0,59.1v6.5l11.2-4.1V55L8.3,56.1V49.6H9.8v5.3l2.6-1V65.4l4.5,2.3H62.1V37.8h.1V32.1L49.7,23.4v-.9h9.8V17.9H49.7V15ZM12.2,23.8H8.8l2.5-3.5h2.3l1.8-2.5,2.7,1.9Zm9.6-6.7L18.6,15h6.2ZM47.1,58.3h.8v3.2h-.8Zm-3.4,0h.7l.7.9.7,1h.1a8.4,8.4,0,0,1-.1-1.2v-.7h.8v3.2h-.7l-.7-.9-.7-1h0v1.9h-.8Zm-6.1,0h1.2c.8,0,1.3.4,1.3,1.1a1,1,0,0,1-.6.9l.7,1.2h-.8l-.6-1h-.4v1h-.8Zm-2.1,0h.7l1.3,3.2h-.8l-.2-.5H35.2l-.2.5h-.8ZM37,66.1H34.1V62.3H37v.8H35.1v.7h1.4v.8H35.1v.7H37Zm4,0h-.9l-.8-1-.8-1.3h0c-.1,0,0,.6,0,1.5v.8h-1V62.3h.9l.8,1.1.9,1.1h0V62.3H41Zm.3-5.7v1.1h-.8V58.3h.8v1.2h0l.4-.5.8-.7h1l-1.4,1.3,1.4,1.9h-.9l-1-1.3Zm2,5.7H41.6V62.3h1.7a1.9,1.9,0,0,1,2,1.9,1.9,1.9,0,0,1-2,1.9m5-3H46.5v.8h1.4v.8H46.5v1.4h-.9V62.3h2.7Zm1.3,3h-.9V62.3h.9Zm-1.4-6.2a1.6,1.6,0,0,1,1.7-1.7,1.5,1.5,0,0,1,1.4.9l-.8.2a.7.7,0,0,0-.6-.3.9.9,0,0,0,0,1.8c.5,0,.8-.2.8-.5h-.8v-.6h1.5v1.8h-.7v-.2h0c-.1.2-.5.3-.8.3a1.6,1.6,0,0,1-1.7-1.7M53,66.1H50.2V62.3H53v.8H51.1v.7h1.5v.8H51.1v.7H53Zm.8-6.6V58.3h.8v3.2h-.8V60.3H52.6v1.2h-.8V58.3h.8v1.2Zm2.5,6.6H53.6V62.3h.9v3h1.8Zm.2-4.6h-.7V59h-1v-.7h2.7V59h-1Zm1.9-1.4a1,1,0,0,1-.8-.9,1.1,1.1,0,0,1,1.2-1,1.2,1.2,0,0,1,1.2.9l-.7.2a.5.5,0,0,0-.6-.4c-.2,0-.3.1-.3.2s.3.3.7.5,1,.4,1,1-.5,1-1.3,1a1.4,1.4,0,0,1-1.4-1l.8-.2c.1.2.3.5.6.5s.4-.1.4-.3-.3-.3-.8-.5m-.1,6H56.6V62.3h1.7a1.9,1.9,0,0,1,2,1.9,1.9,1.9,0,0,1-2,1.9m3.5-28.5H49.7V29ZM22.2,23.7l-3.8,2.9,9.2,6.5V27.4Zm-11,6.1H6.6v7.8h4.6ZM13.4,5.7a2.7,2.7,0,0,1,.7.8A3.8,3.8,0,0,0,16,3.7h2c-.1,1-.2,1.6-.4,1.7H16.1a2.1,2.1,0,0,1,.4,1h1.1a1.5,1.5,0,0,0,.9-.4A6.9,6.9,0,0,0,19,3.2V2.8H16.1a2,2,0,0,0,.1-.7h3.4v-1H16.9l.4-.2L16.8,0l-.9.4.3.7H13.5v1h1.6a3.7,3.7,0,0,1-1.7,3.6m8.3-1.2a4.8,4.8,0,0,1,1.1.9l.6-.6A3.1,3.1,0,0,0,22.3,4ZM9.1,5.9h2.8v.5h1V.5H8.1V6.4h1Zm0-4.4h2.8V2.7H9.1Zm0,2.2h2.8V5H9.1ZM39.3,59.4a.4.4,0,0,0-.4-.4h-.5v.8h.5a.4.4,0,0,0,.4-.4M5.7,29.8H1.1v7.8H5.7ZM43.3,63.1h-.8v2.2h.8a1,1,0,0,0,1-1.1,1.1,1.1,0,0,0-1-1.1M3.4,5.9l.8.6A3.9,3.9,0,0,0,5.3,4.4H6.5v1h-1a3.8,3.8,0,0,1,.3,1l1.3-.2c.3-.2.4-.4.4-.9V.4h-3V2.8A3.8,3.8,0,0,1,3.4,5.9m2-4.6H6.5v.6H5.4Zm0,1.5H6.5v.7H5.4V2.8M36,59.7a2,2,0,0,0-.1-.5h0l-.2.5-.2.6h.8ZM12.4,7.8h-6L1.3,14.6v6.1H2.7ZM58.3,63.1h-.8v2.2h.8a1,1,0,0,0,1-1.1,1.1,1.1,0,0,0-1-1.1M2.5,4.6H4V.5H1.6V5.2h.9Zm0-3.3h.6v.8H2.5Zm0,1.6h.6v.8H2.5Z"></path></svg>